<?xml version="1.0" encoding="utf-8"?>
<!-- Generator: Adobe Illustrator 24.0.0, SVG Export Plug-In . SVG Version: 6.00 Build 0)  -->
<svg version="1.1" xmlns="http://www.w3.org/2000/svg" xmlns:xlink="http://www.w3.org/1999/xlink" x="0px" y="0px"
	 viewBox="0 0 500 500" style="enable-background:new 0 0 500 500;" xml:space="preserve">
<style type="text/css">
	.st0{fill:none;stroke:#D6BD42;stroke-width:5;stroke-linecap:round;stroke-linejoin:round;stroke-miterlimit:10;}
	.st1{fill:#D6BD42;stroke:#D6BD42;stroke-width:5;stroke-linecap:round;stroke-linejoin:round;stroke-miterlimit:10;}
</style>
<g id="BACKGROUND">
</g>
<g id="OBJECTS">
	<g>
		<g>
			<g>
				<path class="st0" d="M186.51,154.24c0.33-9.46,3.61-19.17,10.11-26.89c8.1-9.6,21.12-17.31,35.08-19.15
					c0,0,145.87-24.17,232.87,92"/>
				<path class="st0" d="M171.06,331.19c-37,15.43-69.8,30.52-93.89,42.2"/>
				<path class="st0" d="M236.09,305.58c-3.86,1.42-7.7,2.86-11.53,4.31"/>
				<path class="st0" d="M407.02,258.98c-46,5.9-100.09,21.41-152.55,39.96"/>
				<path class="st0" d="M186.22,154.45"/>
				<path class="st0" d="M185.45,154.17"/>
				<path class="st0" d="M256.88,274.87c43.37-14.57,90.21-27.16,138.34-35.05c0.33-9.46,3.71-19.1,10.22-26.82
					c9.2-10.92,24.85-19.75,41.21-19.51c4.87,0.07,9.84,1.03,13.82,3.4c9.26,5.52,11.66,16.88,10.51,25.78
					c-1.26,9.74-6.71,19.24-15.13,26.03c-11.12,8.95-26.35,12.2-48.81,10.28"/>
				<path class="st0" d="M84.08,348.07c22.11-11.35,56.04-27.07,85.51-39.74"/>
				<g>
					<ellipse class="st0" cx="245.76" cy="210.94" rx="59.53" ry="40.01"/>
					<path class="st1" d="M282.85,198.37c0,5.79-6.99,10.49-15.61,10.49c-8.62,0-15.61-4.7-15.61-10.49s6.99-10.49,15.61-10.49
						C275.86,187.88,282.85,192.58,282.85,198.37z"/>
					<path class="st1" d="M233.13,186.73c0,2.89-3.48,5.23-7.78,5.23c-4.3,0-7.78-2.34-7.78-5.23c0-2.89,3.48-5.23,7.78-5.23
						C229.64,181.5,233.13,183.84,233.13,186.73z"/>
					<path class="st1" d="M271.05,229.59c0,3.57-4.31,6.47-9.62,6.47c-5.31,0-9.62-2.89-9.62-6.47c0-3.57,4.31-6.47,9.62-6.47
						C266.74,223.12,271.05,226.01,271.05,229.59z"/>
					<path class="st1" d="M229.55,219.74c0,4.86-5.86,8.8-13.09,8.8c-7.23,0-13.09-3.94-13.09-8.8c0-4.86,5.86-8.8,13.09-8.8
						C223.69,210.94,229.55,214.88,229.55,219.74z"/>
				</g>
				<path class="st0" d="M120.44,213.9c18.65,7.29,31.19,20.87,31.19,36.42c0,23.25-28.05,42.11-62.65,42.11
					c-9.69,0-18.87-1.48-27.06-4.12"/>
				<path class="st1" d="M111.59,226.06c-0.57,0-1.13,0.02-1.68,0.06L96.65,241.7c2.6,3.8,8.31,6.44,14.94,6.44
					c9.07,0,16.42-4.94,16.42-11.04C128.01,231,120.66,226.06,111.59,226.06z"/>
				<path class="st1" d="M115.59,269.94c0,3.76-4.53,6.8-10.12,6.8s-10.12-3.05-10.12-6.8s4.53-6.8,10.12-6.8
					S115.59,266.19,115.59,269.94z"/>
				<path class="st0" d="M288.41,117.43c6.14,0.67,12.18,1.56,18.04,2.66"/>
				<path class="st0" d="M225.54,118.88c15.02-2.62,31.35-3.42,47.52-2.65"/>
				<path class="st0" d="M405.11,158.14c12,8.44,22.81,18.08,32.14,28.65"/>
				<path class="st0" d="M44.75,356.99c3.85-11.54,8.79-22.77,14.76-33.51"/>
				<path class="st0" d="M38.92,378.51c0.66-3.14,1.4-6.27,2.21-9.38"/>
				<g>
					<line class="st0" x1="336.07" y1="217.33" x2="336.07" y2="228.07"/>
					<line class="st0" x1="342.45" y1="222.7" x2="329.68" y2="222.7"/>
				</g>
				<g>
					<line class="st0" x1="82.8" y1="307.74" x2="82.8" y2="318.49"/>
					<line class="st0" x1="89.19" y1="313.11" x2="76.42" y2="313.11"/>
				</g>
				<g>
					<line class="st0" x1="196.41" y1="269.49" x2="196.41" y2="280.24"/>
					<line class="st0" x1="202.79" y1="274.87" x2="190.03" y2="274.87"/>
				</g>
				<g>
					<line class="st0" x1="157.13" y1="202.84" x2="157.13" y2="213.59"/>
					<line class="st0" x1="163.52" y1="208.22" x2="150.75" y2="208.22"/>
				</g>
				<path class="st0" d="M171.95,294.82v61.93c0,5.08,4.89,9.19,10.92,9.19h0c6.03,0,10.92-4.11,10.92-9.19V314
					c0-2.97,2.86-5.37,6.38-5.37h0c3.53,0,6.38,2.41,6.38,5.37v24.79c0,4.19,4.03,7.58,9,7.58l0,0c4.97,0,9-3.39,9-7.58v-36.83
					c0-2.73,2.63-4.94,5.87-4.94l0,0c3.24,0,5.87,2.21,5.87,4.94v12.79c0,4.22,4.07,7.65,9.08,7.65l0,0c5.02,0,9.08-3.42,9.08-7.65
					v-46.83"/>
				<line class="st0" x1="206.55" y1="316.93" x2="193.78" y2="322.64"/>
				<path class="st0" d="M102.48,325.11c-16.17,13.61-25.26,32.07-25.26,51.33v49.12c0,5.52-5.32,10-11.88,10
					c-6.56,0-11.88-4.48-11.88-10v-20.17c0-2.37-2.29-4.3-5.11-4.3c-2.82,0-5.11,1.93-5.11,4.3v58.02c0,6.12-5.9,11.09-13.18,11.09
					c-11.84,0-12.77-10.17-12.93-17.92C15.66,387.72,36,321.87,79.06,263.31c27.75-37.74,61.46-73.09,100.04-103.42
					c2.44-1.92,4.89-3.81,7.41-5.65c0,0,143.17-22.12,208.7,85.58"/>
				<path class="st0" d="M446.69,234.59c-7.84,7.13-19.35,8.89-25.69,3.95c-6.35-4.95-5.14-14.74,2.71-21.87
					c7.84-7.13,19.35-8.89,25.69-3.95C455.74,217.67,454.53,227.46,446.69,234.59z"/>
			</g>
		</g>
	</g>
</g>
<g id="TEXTS">
</g>
</svg>
